<?xml version="1.0" encoding="UTF-8" standalone="no"?>
<!-- Created with Inkscape (http://www.inkscape.org/) -->

<svg
   version="1.1"
   id="svg1"
   width="341.33334"
   height="341.33334"
   viewBox="0 0 341.33334 341.33334"
   xmlns="http://www.w3.org/2000/svg"
   xmlns:svg="http://www.w3.org/2000/svg">
  <defs
     id="defs1" />
  <g
     id="g1">
    <path
       style="fill:#000000"
       d="m 201.20813,329.6617 c -8.76195,-10.95986 -22.48687,-31.31492 -29.94431,-44.40964 -7.19021,-12.62546 -21.93599,-41.16878 -21.92021,-42.4308 0.006,-0.45169 2.49348,-2.23972 5.52852,-3.9734 6.56832,-3.75197 6.07136,-4.26289 12.79268,13.15215 2.40576,6.23333 4.9488,12.53333 5.65121,14 0.70241,1.46666 2.42939,5.66666 3.83774,9.33333 5.69065,14.81574 20.55248,45.51428 25.49709,52.66667 2.62458,3.79646 5.63091,9.33579 5.06273,9.32836 -0.20913,-0.003 -3.13658,-3.45274 -6.50545,-7.66667 z m -28.19489,-25.35772 c -2.6528,-3.46719 -5.95523,-7.50998 -7.33874,-8.98398 -3.70798,-3.95051 -16.48339,-21.48974 -22.20205,-30.48095 -9.56638,-15.04083 -22.20691,-42.54903 -20.38792,-44.36801 0.44157,-0.44157 2.67422,0.77181 4.96146,2.69639 2.69139,2.26465 5.74686,3.49924 8.66024,3.49924 10.99912,0 15.29377,-6.06982 15.29377,-21.61535 0,-11.15562 -3.78242,-22.78114 -10.11187,-31.07947 -5.0288,-6.5931 -15.7841,-12.61146 -22.55479,-12.62102 -5.60722,-0.008 -13.54191,3.90396 -14.85397,7.32314 -1.07609,2.80424 1.60579,16.99592 4.34248,22.97906 3.58013,7.82715 3.57788,7.91938 -0.0896,3.68031 -7.84043,-9.06231 -21.000598,-42.12872 -15.385814,-38.65859 0.740522,0.45767 2.884323,-0.99559 4.764002,-3.22946 6.632212,-7.88194 22.870662,-8.70621 35.551192,-1.8046 9.26263,5.04135 20.06201,17.27363 25.82093,29.24692 4.12079,8.56747 4.97148,11.90224 5.5155,21.62113 0.37451,6.69067 -0.002,13.86589 -0.90018,17.17544 -2.21243,8.14818 -8.33916,14.60263 -15.18162,15.99369 l -5.58289,1.13499 0.27291,5.79982 c 0.1501,3.18989 0.9001,6.427 1.66666,7.19357 0.76657,0.76657 1.39376,2.23307 1.39376,3.25889 0,1.78234 8.32923,18.98955 14.65147,30.2682 1.64427,2.93334 6.24163,10.06206 10.21634,15.84161 8.03563,11.68445 8.96756,14.91681 1.47876,5.12903 z m 62.07579,-12.65751 c -2.23437,-3.10555 -7.44166,-10.30368 -11.57176,-15.99583 -9.56563,-13.18347 -19.92926,-31.55204 -24.19308,-42.87997 -1.8283,-4.85735 -3.32418,-9.13325 -3.32418,-9.50201 0,-0.36876 1.95,0.34707 4.33333,1.59073 6.59136,3.43946 16.22718,3.16831 19.96114,-0.5617 2.81749,-2.81451 3.03886,-4.17434 3.03886,-18.66667 0,-13.51551 -0.41198,-16.49888 -3.04401,-22.04345 -3.60181,-7.58747 -13.3883,-17.80996 -18.20856,-19.01977 -4.51001,-1.13194 -4.31106,-2.23381 1.15626,-6.40394 l 4.57036,-3.48598 5.67035,4.32773 c 13.22783,10.09576 22.60827,30.14824 22.72921,48.588 0.0902,13.75284 -3.64996,22.31084 -11.72582,26.83032 -1.255,0.70233 -1.88949,2.12402 -1.4542,3.25837 1.41617,3.69049 49.21112,31.65104 54.10336,31.65104 0.75846,0 1.78955,0.66428 2.29133,1.47618 1.15408,1.86733 -1.63395,1.08445 -18.08828,-5.07917 -6.96667,-2.60965 -20.06842,-8.31481 -29.115,-12.67813 -9.04658,-4.36333 -16.77513,-7.60653 -17.17455,-7.20711 -1.34148,1.34149 14.90395,34.18587 23.34427,47.19651 3.58276,5.52277 0.84536,4.36514 -3.29903,-1.39515 z m -98.09062,-71.0925 c -1.06163,-1.06163 -17.49735,-34.32859 -20.91395,-42.33117 -3.80731,-8.91775 -3.65762,-9.37524 2.73334,-8.35328 7.99142,1.27788 15.97658,7.36071 20.4484,15.57692 4.9845,9.15816 6.262,23.59678 2.74379,31.01087 -2.25242,4.74661 -3.41296,5.69528 -5.01158,4.09666 z m 62.15764,-6.89671 c 0.62878,-1.04039 0.096,-2.0149 -1.40487,-2.56942 -5.26866,-1.94662 -5.96827,-8.20407 -1.4252,-12.74714 1.64595,-1.64595 2.81965,-3.74595 2.60822,-4.66667 -0.26628,-1.15954 1.57999,-1.68706 6.00736,-1.71643 5.94026,-0.0394 6.20698,-0.18213 3.77577,-2.02035 -2.56762,-1.94137 -2.55105,-2.04291 0.8961,-5.49007 3.3114,-3.3114 3.64221,-3.38202 5.7885,-1.23572 1.25202,1.25201 2.51113,4.79162 2.79803,7.8658 0.51198,5.48603 0.33131,5.76205 -9.76763,14.92275 -5.65909,5.13333 -9.83342,8.57909 -9.27628,7.65725 z M 177.3751,189.39199 c -2.43966,-3.42618 -4.32295,-7.34464 -9.32022,-19.39198 -3.09401,-7.45902 -5.59332,-15.57267 -4.9845,-16.18149 0.37738,-0.37738 1.09877,0.61393 1.60309,2.2029 0.64307,2.02612 1.68186,2.68901 3.47788,2.21934 1.77948,-0.46534 3.52922,0.61633 5.73414,3.54477 2.65227,3.5226 3.06497,5.30891 2.51393,10.88114 -0.46902,4.74274 0.11083,8.6868 2.00922,13.66667 1.46768,3.85 2.467,7 2.22073,7 -0.24628,0 -1.7107,-1.77361 -3.25427,-3.94135 z m -15.37977,-20.43633 c -4.70628,-10.07722 -18.53619,-24.36933 -27.79066,-28.71945 -13.14617,-6.17943 -29.26981,-6.78629 -36.166644,-1.36123 -3.403716,2.67736 -6.038023,2.35145 -6.038023,-0.74702 0,-2.65754 -4.995608,-6.54286 -7.283674,-5.66484 -1.308566,0.50214 -2.04966,2.48898 -2.04966,5.49504 0,2.58968 -0.526533,4.70851 -1.170074,4.70851 -2.917074,0 -4.527699,-4.90919 -5.56848,-16.97276 -1.305178,-15.12814 -2.25183,-19.02724 -4.61957,-19.02724 -0.942576,0 -2.822597,2.13665 -4.177825,4.74811 -3.051684,5.88046 -4.653928,6.31729 -5.912336,1.61193 -1.120987,-4.19153 1.240428,-13.102248 6.137488,-23.159603 1.820938,-3.739759 3.310797,-7.789759 3.310797,-9 0,-3.530946 -4.574384,-2.557513 -8.456556,1.799562 -4.164068,4.673456 -6.210111,5.090934 -6.210111,1.26712 0,-4.942487 4.19552,-11.13849 13.499111,-19.935676 6.307063,-5.963762 9.167556,-9.652537 9.167556,-11.822103 0,-2.752828 -0.465922,-3.047938 -3.666667,-2.322431 -13.690873,3.103284 -14.786937,2.600299 -9.089218,-4.171055 2.011645,-2.390705 6.190648,-4.818926 11,-6.391581 9.406329,-3.075862 17.870378,-8.566157 17.406552,-11.290942 -0.236162,-1.387355 -2.551564,-2.204215 -7.558699,-2.666667 -8.139835,-0.751783 -9.731146,-2.619276 -4.918778,-5.772461 2.461151,-1.612608 7.341531,-2.236649 19.699671,-2.518944 14.34681,-0.327721 16.48412,-0.667956 16.87092,-2.685653 0.29871,-1.558185 -1.10683,-3.04941 -4.3171,-4.5802828 -6.85437,-3.2686235 -6.50888,-7.1093265 0.63953,-7.1093265 5.9425,0 10.44176,1.9746129 19.77095,8.6769693 7.84359,5.635057 12.4304,6.88044 14.80464,4.019663 1.508,-1.81703 1.34151,-2.730843 -1.09894,-6.0317247 C 145.22227,5.2910809 144.34745,0 146.66667,0 147.4,0 148,0.5349552 148,1.1887893 c 0,0.6538342 1.4867,1.5619272 3.30378,2.0179846 1.81708,0.4560574 7.14354,4.4211023 11.83658,8.8112111 11.60164,10.852768 17.6384,10.98735 12.84745,0.286419 -2.85759,-6.3826347 -1.55905,-8.3072812 3.40873,-5.0522689 3.49545,2.290304 7.12776,7.5890299 13.30882,19.4145319 4.85552,9.289505 7.11998,12.000001 10.02531,12.000001 2.86504,0 3.87249,-2.397823 2.97657,-7.084508 -0.37663,-1.970188 -0.27197,-3.582159 0.23257,-3.582159 3.50173,0 7.69729,10.491397 9.84002,24.605928 0.97003,6.389775 2.21439,9.913272 4.00249,11.333334 1.76677,1.403121 2.88439,4.507308 3.5022,9.727406 0.87854,7.423059 1.50563,8.21438 6.16058,7.773932 3.25984,-0.308443 5.94896,19.674729 3.84813,28.595909 -2.65763,11.28565 -6.24961,17.82688 -11.04497,20.11363 -2.90508,1.38534 -6.14508,5.01647 -9.6448,10.80912 -6.53345,10.814 -21.57822,24.37408 -27.0428,24.37408 -4.20483,0 -9.72007,-5.16353 -15.6657,-14.66667 -2.94047,-4.69988 -3.91363,-8.16686 -4.49109,-16 -0.87103,-11.81546 -3.23359,-13.26473 -3.80374,-2.33333 C 161.3802,136.55 160.90041,140 160.53392,140 c -2.35722,0 -8.83931,-4.6815 -13.26513,-9.58035 -2.85861,-3.16414 -5.51352,-5.65767 -5.8998,-5.54117 -1.66109,0.50096 -7.62907,-4.10892 -10.70232,-8.26686 -4.19002,-5.66888 -7.23201,-7.18102 -5.90748,-2.93656 0.51346,1.64539 1.6027,3.43242 2.42052,3.97119 0.99025,0.65236 0.84324,0.98641 -0.44008,1 -1.05987,0.0112 -3.60362,-1.58584 -5.65276,-3.54904 -4.64465,-4.44986 -6.12181,-3.43921 -2.22115,1.51967 l 2.90306,3.69064 -4.09079,-0.89848 c -2.41783,-0.53105 -4.44752,-0.32129 -4.96308,0.5129 -0.47975,0.77627 -0.25466,1.4114 0.50022,1.4114 2.95471,0 17.18905,7.27371 24.78487,12.66501 12.75665,9.0543 22.27777,22.29969 27.23235,37.88453 2.30939,7.26428 0.94747,6.0327 -3.23702,-2.92722 z M 188.23666,142.9639 C 189.03315,131.95262 188.07414,124 185.94981,124 c -3.54781,0 -4.53532,9.46003 -2.05297,19.66667 0.93636,3.85 2.17052,7 2.74257,7 0.57205,0 1.29081,-3.46624 1.59725,-7.70277 z m -29.02185,-37.73286 c 4.16357,-4.94813 4.62943,-13.194447 1.17801,-20.852468 -4.99928,-11.09241 -24.38188,-25.378932 -37.78883,-27.853372 -4.38705,-0.809692 -4.47833,-0.749843 -1.93732,1.270131 1.46667,1.165924 3.41667,2.138944 4.33333,2.162266 0.91667,0.02332 1.66667,0.57736 1.66667,1.231194 0,0.653834 1.57935,1.58518 3.50966,2.069657 5.77465,1.449346 18.15154,15.081037 20.83204,22.944048 2.55412,7.492316 2.09445,10.601121 -1.74784,11.820616 -6.40609,2.033208 -12.65214,-8.785627 -9.65557,-16.72447 1.11326,-2.949353 1.00294,-4.407667 -0.49526,-6.546639 -6.07464,-8.672761 -11.27817,5.786014 -7.06461,19.630038 1.0649,3.498807 3.72191,7.506329 6.85106,10.333329 4.20281,3.79698 6.15646,4.61797 10.98917,4.61797 4.92644,0 6.43626,-0.66389 9.32949,-4.1023 z m 34.66626,-2.44022 c 8.92628,-9.317037 5.6509,-39.824107 -5.65304,-52.652682 -1.22541,-1.390692 -4.56805,-4.240692 -7.42808,-6.333334 -4.39061,-3.212551 -6.48237,-3.804803 -13.43807,-3.804803 -6.94156,0 -9.1984,0.636128 -14.34047,4.042093 -3.35635,2.223151 -7.76876,6.226738 -9.80536,8.896859 l -3.70291,4.854766 5.00851,4.329511 5.0085,4.329511 4.75432,-3.22637 c 2.61488,-1.774503 5.5706,-3.226369 6.56826,-3.226369 0.99767,0 1.81394,-1.2 1.81394,-2.666667 0,-1.466667 -0.6,-2.666667 -1.33333,-2.666667 -0.73334,0 -1.33334,-0.62111 -1.33334,-1.380245 0,-0.917116 0.93266,-0.881106 2.77955,0.107322 4.48693,2.401334 6.59248,9.724052 7.83422,27.245945 1.50131,21.18485 4.18496,25.89581 14.80345,25.98643 3.53624,0.0302 5.69971,-0.95017 8.46385,-3.8353 z m 32.27719,64.63148 c -1.92037,-2.51774 -3.49901,-5.06774 -3.50809,-5.66667 -0.009,-0.59893 -2.10908,-2.44447 -4.66667,-4.10122 -5.72293,-3.70716 -5.80224,-5.40539 -0.48595,-10.40495 2.29032,-2.15387 4.9533,-5.71612 5.91773,-7.91612 0.96443,-2.2 4.0717,-5.29952 6.90504,-6.88783 l 5.15152,-2.88783 4.53075,6.63948 c 6.35373,9.31092 6.03857,13.20556 -2.06925,25.57113 -3.63,5.53626 -6.97879,10.10323 -7.44175,10.14882 -0.46296,0.0456 -2.41296,-1.97707 -4.33333,-4.49481 z m 11.73934,-57.08896 c 0.4768,-2.38334 1.22017,-6.03215 1.65192,-8.10848 0.43174,-2.07632 0.039,-5.168983 -0.8727,-6.872572 -1.42773,-2.667731 -1.14823,-4.174368 2.01473,-10.860317 l 3.67243,-7.762882 -2.55891,-4.697877 c -2.56892,-4.716236 -3.85385,-5.144666 -10.45826,-3.487064 -2.57537,0.646376 -3.57732,0.278003 -4.1109,-1.511395 -0.38805,-1.301346 -1.59222,-4.09493 -2.67593,-6.207962 -1.74865,-3.409514 -1.73878,-4.195363 0.0876,-6.98285 2.64397,-4.035209 11.41107,-8.508606 16.67542,-8.508606 13.45524,0 26.81052,16.632002 26.62151,33.153113 -0.14126,12.346426 -9.28657,26.372442 -21.23871,32.573432 -8.97913,4.65853 -9.87087,4.58498 -8.80825,-0.72654 z m 33.22785,-24.354399 c 1.56734,-3.41124 5.45915,-5.00064 16.20789,-6.61925 4.80257,-0.723198 4.27866,-0.266876 -5.26436,4.58526 -5.82873,2.963612 -11.02228,5.388385 -11.54122,5.388385 -0.51894,0 -0.24998,-1.509478 0.59769,-3.354395 z"
       id="path1" />
  </g>
</svg>
